PathFileType	4	(x/y/z)	S10_P20_T26
DataRate	CameraRate	NumFrames	NumMarkers	Units	OrigDataRate	OrigDataStartFrame	OrigNumFrames
240	240	10	51	mm	240	311	414
Frame#	Time	Sternum			R.Acromium			L.Acromium			Top.Head			R.ASIS			L.ASIS			R.PSIS			L.PSIS			R.Great.Tro			L.Great.Tro			R.Iliac.Crest			L.Iliac.Crest			V.Sacral			R.Thigh.Upper.Post			R.Thigh.Lower.Ant			R.Thigh.Lower.Post			R.Thigh.Upper.Ant			R.Knee.Lat			R.Knee.Med			R.Shank.Upper.Post			R.Shank.Lower.Ant			R.Shank.Lower.Post			R.Shank.Upper.Ant			R.Ankle.Lat			R.Ankle.Med			R.Heel.Upper			R.Heel.Med			R.Heel.Lat			R.Toe.Lat			R.Toe.Med			R.Toe.Tip			L.Thigh.Upper.Post			L.Thigh.Lower.Ant			L.Thigh.Lower.Post			L.Thigh.Upper.Ant			L.Knee.Lat			L.Knee.Med			L.Shank.Upper.Post			L.Shank.Lower.Ant			L.Shank.Lower.Post			L.Shank.Upper.Ant			L.Ankle.Lat			L.Ankle.Med			L.Heel.Upper			L.Heel.Med			L.Heel.Lat			L.Toe.Lat			L.Toe.Med			L.Toe.Tip			Cervical.Spine			Back			
		X1	Y1	Z1	X2	Y2	Z2	X3	Y3	Z3	X4	Y4	Z4	X5	Y5	Z5	X6	Y6	Z6	X7	Y7	Z7	X8	Y8	Z8	X9	Y9	Z9	X10	Y10	Z10	X11	Y11	Z11	X12	Y12	Z12	X13	Y13	Z13	X14	Y14	Z14	X15	Y15	Z15	X16	Y16	Z16	X17	Y17	Z17	X18	Y18	Z18	X19	Y19	Z19	X20	Y20	Z20	X21	Y21	Z21	X22	Y22	Z22	X23	Y23	Z23	X24	Y24	Z24	X25	Y25	Z25	X26	Y26	Z26	X27	Y27	Z27	X28	Y28	Z28	X29	Y29	Z29	X30	Y30	Z30	X31	Y31	Z31	X32	Y32	Z32	X33	Y33	Z33	X34	Y34	Z34	X35	Y35	Z35	X36	Y36	Z36	X37	Y37	Z37	X38	Y38	Z38	X39	Y39	Z39	X40	Y40	Z40	X41	Y41	Z41	X42	Y42	Z42	X43	Y43	Z43	X44	Y44	Z44	X45	Y45	Z45	X46	Y46	Z46	X47	Y47	Z47	X48	Y48	Z48	X49	Y49	Z49	X50	Y50	Z50	X51	Y51	Z51	

311	1.2917	313.03	1287.5	277.11	183.9	1442.1	424.96	203.62	1474.5	124.76	196.96	1766.4	300.78	252.14	1021.6	377.96	258.52	1039.6	148.26	54.189	1038.6	285.91	61.5	1048.4	204.91	184.57	941.98	448.41	197.64	976.39	87.542	151.3	1098.4	419.87	192.42	1112	119.77	37.347	1008.4	246.12	271.7	745.99	457.45	352.81	692.43	426.58	298.04	660.52	454.34	325.65	779.84	425.27	324.23	535.51	418	345.32	540.14	288.33	161.96	375.46	393.29	187.56	287.66	392.56	126.51	310.76	387	229.42	351.87	401.16	92.761	205.39	368.92	118.67	205.15	293.5	27.795	192.97	305.66	25.072	163.52	279.52	11.225	173.56	339.43	134.83	76.225	418.98	182.3	59.576	321.06	230.61	48.921	373.89	161.7	693.84	103.8	233.22	613.86	130.93	162.11	600.85	129.29	240.05	701.84	105.41	196.45	515.05	140.52	207.56	517.28	268.64	111.76	308.54	144.46	167.32	214.45	163.01	106.64	231.78	155.67	173.37	290.37	150.8	120.8	108.73	170.01	133.81	120.01	256.74	49.866	79.113	215.59	60.541	46.71	248.75	56.369	49.259	184.11	233.65	41.713	146.07	261.06	45.85	255.31	316.04	56.299	206.72	116.94	1509.4	280.85	29.817	1303.6	258.29
312	1.2958	318.05	1288.1	277.43	188.28	1442.5	424.92	209.51	1475.3	124.89	202.03	1766.8	301.21	256.78	1022.2	377.86	263.78	1039.7	148.21	59.131	1039.2	285.51	66.649	1048.9	204.45	189.51	942.83	448.37	202.86	976.4	87.522	155.84	1099.1	419.51	197.92	1112.2	119.5	42.379	1009	245.7	277.93	747.19	457.2	359.2	694.12	425.9	304.83	661.9	454.01	331.36	781.36	424.74	331.29	536.76	417.39	351.71	541.84	288.01	172.29	372.73	393.51	200.05	285.61	392.26	138.42	307.2	387.19	240.34	350.8	400.84	106.98	200.99	368.89	132.94	201.36	293.53	42.029	186.31	305.71	40.306	156.64	279.73	26.222	166.42	339.61	153.26	73.662	419.4	201.16	58.195	321.46	249.88	49.404	374.25	164.53	694.37	103.79	235.4	613.76	130.83	164.17	601.35	129.21	242.93	701.74	105.4	197.63	515.15	140.24	208.96	517.21	268.37	112.38	308.88	144.35	167.62	214.6	162.86	107.04	232.14	155.63	173.86	290.52	150.62	120.9	108.87	170.05	133.92	120.23	256.74	49.996	79.244	215.68	60.679	46.814	248.82	56.439	49.424	184.16	233.68	41.673	146.07	261.1	45.804	255.28	316.11	56.126	206.69	122.03	1509.8	280.53	35.015	1304.1	257.28
313	1.3	323.08	1288.7	277.74	192.68	1442.8	424.88	215.39	1476.1	125.04	207.07	1767.1	301.65	261.45	1022.8	377.77	269.03	1039.8	148.15	64.079	1039.7	285.13	71.788	1049.3	204.02	194.46	943.62	448.34	208.08	976.37	87.515	160.42	1099.8	419.17	203.4	1112.4	119.26	47.413	1009.4	245.32	284.09	748.3	456.92	365.51	695.71	425.19	311.53	663.18	453.64	337.05	782.78	424.2	338.22	537.93	416.77	357.94	543.44	287.68	182.67	369.9	393.77	212.62	283.55	391.98	150.44	303.56	387.41	251.29	349.68	400.54	121.36	196.57	368.91	147.36	197.56	293.59	56.53	179.65	305.81	55.81	149.79	280	41.493	159.29	339.84	171.77	71.166	419.84	220.07	56.911	321.86	269.14	49.975	374.61	167.38	694.89	103.76	237.59	613.66	130.71	166.25	601.85	129.11	245.83	701.63	105.4	198.82	515.25	139.95	210.35	517.14	268.09	113.01	309.23	144.23	167.93	214.76	162.72	107.43	232.5	155.58	174.37	290.67	150.44	121.01	109.01	170.09	134.09	120.45	256.75	50.135	79.383	215.78	60.827	46.923	248.89	56.512	49.598	184.22	233.7	41.631	146.07	261.15	45.758	255.26	316.18	55.952	206.66	127.14	1510.2	280.22	40.221	1304.5	256.29
314	1.3042	328.1	1289.2	278.04	197.11	1443.1	424.85	221.27	1476.8	125.2	212.11	1767.4	302.1	266.14	1023.4	377.68	274.27	1039.8	148.1	69.034	1040.1	284.79	76.919	1049.7	203.62	199.41	944.36	448.33	213.28	976.29	87.52	165.04	1100.4	418.84	208.87	1112.6	119.04	52.449	1009.8	244.97	290.16	749.33	456.63	371.73	697.19	424.47	318.12	664.37	453.22	342.74	784.11	423.64	344.99	539.03	416.13	363.99	544.92	287.34	193.1	367	394.05	225.26	281.48	391.73	162.56	299.87	387.67	262.27	348.54	400.26	135.91	192.13	368.98	161.9	193.76	293.69	71.295	172.99	305.98	71.58	142.99	280.32	57.035	152.18	340.12	190.37	68.748	420.27	239.01	55.735	322.27	288.39	50.641	374.96	170.25	695.39	103.71	239.78	613.56	130.58	168.33	602.33	128.99	248.72	701.51	105.41	200.02	515.35	139.66	211.75	517.06	267.8	113.65	309.6	144.1	168.26	214.92	162.58	107.83	232.85	155.54	174.89	290.82	150.26	121.13	109.16	170.13	134.3	120.69	256.77	50.281	79.533	215.89	60.983	47.039	248.96	56.589	49.781	184.28	233.73	41.589	146.07	261.2	45.711	255.24	316.25	55.777	206.62	132.24	1510.5	279.92	45.438	1304.9	255.31
315	1.3083	333.13	1289.6	278.33	201.55	1443.3	424.81	227.13	1477.4	125.38	217.13	1767.6	302.54	270.86	1023.9	377.6	279.51	1039.8	148.05	73.997	1040.5	284.48	82.042	1050	203.25	204.36	945.03	448.33	218.47	976.18	87.534	169.7	1101	418.52	214.32	1112.7	118.85	57.489	1010.2	244.65	296.15	750.26	456.31	377.86	698.55	423.73	324.6	665.46	452.76	348.43	785.33	423.07	351.63	540.04	415.47	369.88	546.28	286.99	203.58	364.03	394.36	237.96	279.42	391.51	174.79	296.14	387.95	273.26	347.37	400	150.62	187.69	369.1	176.57	189.98	293.83	86.323	166.36	306.2	87.609	136.25	280.69	72.842	145.13	340.44	209.04	66.422	420.7	257.97	54.68	322.67	307.6	51.41	375.31	173.12	695.88	103.64	241.99	613.46	130.45	170.43	602.8	128.85	251.62	701.38	105.41	201.22	515.45	139.37	213.16	516.98	267.51	114.31	309.96	143.96	168.6	215.09	162.43	108.22	233.22	155.51	175.42	290.98	150.08	121.25	109.31	170.18	134.57	120.95	256.79	50.433	79.696	216	61.145	47.165	249.03	56.668	49.977	184.35	233.75	41.545	146.08	261.25	45.663	255.22	316.33	55.601	206.59	137.36	1510.7	279.63	50.665	1305.3	254.36
316	1.3125	338.17	1290	278.63	206.02	1443.4	424.78	232.99	1478	125.56	222.14	1767.7	302.99	275.61	1024.3	377.53	284.73	1039.7	148	78.969	1040.8	284.2	87.16	1050.2	202.91	209.3	945.65	448.35	223.64	976.02	87.559	174.39	1101.5	418.22	219.76	1112.7	118.67	62.533	1010.5	244.37	302.03	751.1	455.98	383.89	699.78	422.97	330.96	666.44	452.25	354.11	786.45	422.5	358.12	540.97	414.8	375.61	547.51	286.62	214.11	361	394.69	250.71	277.38	391.32	187.12	292.39	388.26	284.26	346.19	399.75	165.49	183.29	369.26	191.37	186.23	293.99	101.6	159.79	306.48	103.89	129.62	281.11	88.906	138.16	340.8	227.77	64.202	421.13	276.95	53.758	323.08	326.78	52.289	375.65	176.01	696.36	103.55	244.21	613.36	130.31	172.55	603.26	128.7	254.52	701.24	105.43	202.43	515.55	139.08	214.57	516.89	267.21	114.97	310.34	143.81	168.96	215.27	162.29	108.61	233.58	155.48	175.96	291.13	149.9	121.38	109.47	170.24	134.91	121.21	256.83	50.59	79.874	216.12	61.31	47.304	249.11	56.751	50.186	184.43	233.78	41.5	146.08	261.31	45.613	255.2	316.4	55.423	206.55	142.48	1510.9	279.35	55.902	1305.6	253.42
317	1.3167	343.22	1290.3	278.92	210.52	1443.5	424.75	238.85	1478.5	125.75	227.13	1767.8	303.45	280.4	1024.7	377.46	289.95	1039.6	147.96	83.95	1041	283.95	92.275	1050.4	202.6	214.24	946.2	448.37	228.8	975.83	87.591	179.13	1102	417.93	225.18	1112.7	118.52	67.584	1010.7	244.12	307.81	751.84	455.62	389.82	700.88	422.2	337.2	667.31	451.7	359.79	787.45	421.92	364.46	541.8	414.11	381.2	548.61	286.22	224.68	357.93	395.03	263.51	275.37	391.16	199.54	288.64	388.58	295.27	345.02	399.53	180.52	178.93	369.46	206.27	182.54	294.2	117.13	153.3	306.81	120.41	123.11	281.56	105.22	131.29	341.21	246.57	62.103	421.56	295.94	52.983	323.48	345.91	53.287	375.98	178.92	696.82	103.43	246.43	613.26	130.18	174.68	603.71	128.52	257.42	701.09	105.45	203.66	515.66	138.78	215.99	516.8	266.92	115.64	310.72	143.67	169.34	215.45	162.15	109.02	233.96	155.45	176.51	291.3	149.72	121.52	109.64	170.29	135.29	121.5	256.87	50.751	80.069	216.24	61.476	47.458	249.19	56.838	50.409	184.52	233.8	41.454	146.08	261.37	45.562	255.18	316.48	55.244	206.51	147.61	1511.1	279.08	61.15	1305.8	252.5
318	1.3208	348.27	1290.6	279.21	215.04	1443.6	424.73	244.69	1478.9	125.96	232.12	1767.9	303.9	285.22	1025	377.41	295.15	1039.4	147.92	88.942	1041.2	283.73	97.388	1050.6	202.33	219.18	946.69	448.41	233.94	975.61	87.631	183.9	1102.4	417.66	230.59	1112.7	118.39	72.642	1010.9	243.89	313.47	752.47	455.24	395.65	701.84	421.42	343.3	668.05	451.1	365.44	788.33	421.34	370.66	542.54	413.41	386.65	549.58	285.79	235.3	354.83	395.37	276.35	273.41	391.04	212.05	284.89	388.92	306.28	343.85	399.32	195.69	174.64	369.71	221.28	178.92	294.43	132.89	146.91	307.2	137.15	116.74	282.06	121.76	124.55	341.65	265.41	60.141	421.99	314.92	52.366	323.88	364.99	54.415	376.31	181.84	697.27	103.3	248.67	613.16	130.04	176.82	604.15	128.34	260.32	700.94	105.47	204.89	515.76	138.49	217.42	516.72	266.63	116.3	311.1	143.54	169.74	215.65	162.02	109.43	234.34	155.42	177.08	291.47	149.54	121.66	109.82	170.36	135.73	121.79	256.92	50.917	80.284	216.37	61.643	47.63	249.28	56.927	50.65	184.62	233.83	41.409	146.09	261.44	45.509	255.17	316.56	55.064	206.47	152.74	1511.2	278.82	66.408	1306	251.61
319	1.325	353.33	1290.7	279.5	219.58	1443.6	424.7	250.52	1479.3	126.18	237.09	1767.9	304.35	290.08	1025.2	377.35	300.34	1039.2	147.89	93.945	1041.3	283.54	102.5	1050.6	202.09	224.1	947.11	448.45	239.05	975.35	87.678	188.71	1102.7	417.41	235.98	1112.5	118.28	77.709	1011	243.71	319.02	752.99	454.85	401.37	702.66	420.64	349.25	668.67	450.47	371.06	789.08	420.76	376.72	543.19	412.69	391.97	550.4	285.34	245.96	351.72	395.72	289.21	271.51	390.95	224.64	281.17	389.26	317.27	342.7	399.14	211	170.44	370	236.39	175.38	294.7	148.86	140.65	307.63	154.1	110.54	282.6	138.53	117.96	342.12	284.29	58.33	422.41	333.9	51.92	324.27	384	55.682	376.63	184.78	697.72	103.14	250.91	613.06	129.9	178.97	604.59	128.15	263.23	700.78	105.5	206.14	515.87	138.21	218.85	516.64	266.34	116.96	311.48	143.42	170.15	215.85	161.88	109.85	234.73	155.39	177.65	291.65	149.37	121.81	110.01	170.43	136.22	122.09	256.97	51.088	80.52	216.51	61.809	47.822	249.37	57.021	50.908	184.72	233.86	41.363	146.09	261.52	45.455	255.15	316.65	54.881	206.43	157.89	1511.2	278.56	71.676	1306.2	250.74
320	1.3292	358.41	1290.8	279.79	224.15	1443.5	424.68	256.35	1479.7	126.4	242.06	1767.8	304.8	294.97	1025.4	377.31	305.53	1039	147.86	98.961	1041.4	283.39	107.62	1050.6	201.89	229.01	947.47	448.51	244.15	975.06	87.731	193.56	1103	417.17	241.36	1112.4	118.2	82.784	1011	243.55	324.46	753.4	454.44	406.98	703.32	419.86	355.06	669.16	449.81	376.64	789.69	420.17	382.64	543.73	411.96	397.16	551.07	284.85	256.64	348.6	396.05	302.08	269.68	390.9	237.29	277.48	389.6	328.24	341.57	398.97	226.44	166.34	370.33	251.59	171.94	295	165.03	134.54	308.11	171.25	104.53	283.17	155.51	111.54	342.63	303.21	56.688	422.83	352.86	51.658	324.66	402.94	57.098	376.93	187.74	698.15	102.97	253.15	612.95	129.77	181.14	605.01	127.94	266.14	700.61	105.54	207.41	515.99	137.93	220.3	516.57	266.05	117.62	311.87	143.32	170.57	216.07	161.74	110.28	235.13	155.36	178.23	291.83	149.19	121.98	110.21	170.5	136.73	122.41	257.03	51.263	80.779	216.64	61.972	48.037	249.47	57.118	51.186	184.82	233.89	41.317	146.1	261.61	45.4	255.14	316.74	54.695	206.4	163.04	1511.2	278.32	76.954	1306.2	249.89
